<svg width="44" height="44" viewBox="0 0 44 44" fill="none" xmlns="http://www.w3.org/2000/svg">
<path d="M22 41.7084C21.2483 41.7084 20.625 41.0851 20.625 40.3334V36.6667C20.625 35.9151 21.2483 35.2917 22 35.2917C22.7517 35.2917 23.375 35.9151 23.375 36.6667V40.3334C23.375 41.0851 22.7517 41.7084 22 41.7084Z" fill="#004DF7"/>
<path d="M22 34.3749C21.2483 34.3749 20.625 33.7516 20.625 32.9999V29.3333C20.625 28.5816 21.2483 27.9583 22 27.9583C22.7517 27.9583 23.375 28.5816 23.375 29.3333V32.9999C23.375 33.7516 22.7517 34.3749 22 34.3749Z" fill="#004DF7"/>
<path d="M22 27.0416C21.2483 27.0416 20.625 26.4183 20.625 25.6666V20.1666C20.625 12.3383 27.005 5.95825 34.8333 5.95825H40.3333C41.085 5.95825 41.7083 6.58159 41.7083 7.33325C41.7083 8.08492 41.085 8.70825 40.3333 8.70825H34.8333C28.5083 8.70825 23.375 13.8416 23.375 20.1666V25.6666C23.375 26.4183 22.7517 27.0416 22 27.0416Z" fill="#004DF7"/>
<path d="M22 27.0416C21.2483 27.0416 20.625 26.4183 20.625 25.6666V20.1666C20.625 13.8416 15.4916 8.70825 9.16663 8.70825H3.66663C2.91496 8.70825 2.29163 8.08492 2.29163 7.33325C2.29163 6.58159 2.91496 5.95825 3.66663 5.95825H9.16663C16.995 5.95825 23.375 12.3383 23.375 20.1666V25.6666C23.375 26.4183 22.7516 27.0416 22 27.0416Z" fill="#004DF7"/>
<path d="M7.33335 12.3749C6.98501 12.3749 6.63668 12.2466 6.36168 11.9716L2.69501 8.30489C2.16335 7.77323 2.16335 6.89323 2.69501 6.36156L6.36168 2.69489C6.89335 2.16323 7.77335 2.16323 8.30502 2.69489C8.83668 3.22656 8.83668 4.10656 8.30502 4.63823L5.61001 7.33323L8.30502 10.0282C8.83668 10.5599 8.83668 11.4399 8.30502 11.9716C8.03001 12.2466 7.68168 12.3749 7.33335 12.3749Z" fill="#004DF7"/>
<path d="M36.6667 12.3749C36.3183 12.3749 35.97 12.2466 35.695 11.9716C35.1633 11.4399 35.1633 10.5599 35.695 10.0282L38.39 7.33323L35.695 4.63823C35.1633 4.10656 35.1633 3.22656 35.695 2.69489C36.2267 2.16323 37.1067 2.16323 37.6384 2.69489L41.305 6.36156C41.8367 6.89323 41.8367 7.77323 41.305 8.30489L37.6384 11.9716C37.3634 12.2466 37.015 12.3749 36.6667 12.3749Z" fill="#004DF7"/>
</svg>
