<svg width="44" height="44" viewBox="0 0 44 44" fill="none" xmlns="http://www.w3.org/2000/svg">
<path d="M38.665 12.7968C37.1067 11.0735 34.5034 10.2118 30.7267 10.2118H30.2867V10.1385C30.2867 7.05845 30.2867 3.24512 23.3934 3.24512H20.6067C13.7134 3.24512 13.7134 7.07678 13.7134 10.1385V10.2301H13.2734C9.47836 10.2301 6.89336 11.0918 5.33503 12.8151C3.52003 14.8318 3.57503 17.5451 3.75836 19.3968L3.77669 19.5251L3.93748 21.2134C3.95175 21.3632 4.0321 21.4982 4.15775 21.5809C4.55112 21.84 5.43715 22.4174 5.94003 22.6968C6.19669 22.8618 6.47169 23.0085 6.74669 23.1551C9.88169 24.8785 13.3284 26.0335 16.83 26.6018C16.995 28.3251 17.7467 30.3418 21.7617 30.3418C25.7767 30.3418 26.565 28.3435 26.6934 26.5651C30.4334 25.9601 34.045 24.6584 37.3084 22.7518C37.4184 22.6968 37.4917 22.6418 37.5834 22.5868C38.363 22.1461 39.174 21.5957 39.9005 21.066C40.0131 20.9839 40.0854 20.858 40.1008 20.7195L40.15 20.2768L40.2417 19.4151C40.26 19.3051 40.26 19.2134 40.2784 19.0851C40.425 17.2334 40.3884 14.7035 38.665 12.7968ZM23.9984 25.3551C23.9984 27.2985 23.9984 27.5918 21.7434 27.5918C19.4884 27.5918 19.4884 27.2435 19.4884 25.3735V23.0634H23.9984V25.3551ZM16.335 10.2118V10.1385C16.335 7.02178 16.335 5.86678 20.6067 5.86678H23.3934C27.665 5.86678 27.665 7.04012 27.665 10.1385V10.2301H16.335V10.2118Z" fill="#004DF7"/>
<path d="M38.9448 24.8546C39.2974 24.6841 39.701 24.9653 39.6656 25.3553L38.94 33.3482C38.555 37.0149 37.0517 40.7549 28.985 40.7549H15.015C6.94837 40.7549 5.44504 37.0149 5.06004 33.3666L4.36933 25.7687C4.33429 25.3833 4.729 25.1025 5.08069 25.2642C6.94611 26.1215 11.662 28.2292 14.2927 28.8691C14.4577 28.9093 14.5916 29.0265 14.658 29.1829C15.7258 31.6966 18.1768 33.0366 21.7617 33.0366C25.3111 33.0366 27.7953 31.6451 28.8653 29.1281C28.9318 28.9717 29.0654 28.8545 29.2306 28.8143C32.0175 28.1357 37.0057 25.7924 38.9448 24.8546Z" fill="#004DF7"/>
</svg>
