<svg width="44" height="44" viewBox="0 0 44 44" fill="none" xmlns="http://www.w3.org/2000/svg">
<path d="M20.2584 27.4084L16.8667 30.8001C16.1517 31.5151 15.0151 31.5151 14.2817 30.8184C14.0801 30.6167 13.8784 30.4334 13.6767 30.2317C11.7884 28.3251 10.0834 26.3267 8.56175 24.2367C7.05842 22.1467 5.84841 20.0567 4.96841 17.9851C4.10675 15.8951 3.66675 13.8967 3.66675 11.9901C3.66675 10.7434 3.88675 9.55175 4.32675 8.45175C4.76675 7.33342 5.46341 6.30675 6.43508 5.39008C7.60842 4.23508 8.89175 3.66675 10.2484 3.66675C10.7617 3.66675 11.2751 3.77675 11.7334 3.99675C12.2101 4.21675 12.6317 4.54675 12.9617 5.02341L17.2151 11.0184C17.5451 11.4767 17.7834 11.8984 17.9484 12.3017C18.1134 12.6867 18.2051 13.0717 18.2051 13.4201C18.2051 13.8601 18.0767 14.3001 17.8201 14.7217C17.5817 15.1434 17.2334 15.5834 16.7934 16.0234L15.4001 17.4717C15.1984 17.6734 15.1067 17.9117 15.1067 18.2051C15.1067 18.3517 15.1251 18.4801 15.1617 18.6267C15.2168 18.7734 15.2717 18.8834 15.3084 18.9934C15.6384 19.5984 16.2067 20.3867 17.0134 21.3401C17.8384 22.2934 18.7184 23.2651 19.6717 24.2367C19.8551 24.4201 20.0567 24.6034 20.2401 24.7867C20.9734 25.5017 20.9918 26.6751 20.2584 27.4084Z" fill="#004DF7"/>
<path d="M40.2784 33.605C40.2784 34.1183 40.1868 34.65 40.0034 35.1633C39.9484 35.31 39.8934 35.4567 39.8201 35.6033C39.5084 36.2633 39.1051 36.8867 38.5734 37.4733C37.6751 38.4633 36.6851 39.1783 35.5668 39.6367C35.5484 39.6367 35.5301 39.655 35.5118 39.655C34.4301 40.095 33.2568 40.3333 31.9918 40.3333C30.1218 40.3333 28.1234 39.8933 26.0151 38.995C23.9068 38.0967 21.7984 36.8867 19.7084 35.365C18.9934 34.8333 18.2784 34.3017 17.6001 33.7333L23.5951 27.7383C24.1084 28.1233 24.5668 28.4167 24.9518 28.6183C25.0434 28.655 25.1534 28.71 25.2818 28.765C25.4284 28.82 25.5751 28.8383 25.7401 28.8383C26.0518 28.8383 26.2901 28.7283 26.4918 28.5267L27.8851 27.1517C28.3434 26.6933 28.7834 26.345 29.2051 26.125C29.6268 25.8683 30.0484 25.74 30.5068 25.74C30.8551 25.74 31.2218 25.8133 31.6251 25.9783C32.0284 26.1433 32.4501 26.3817 32.9084 26.6933L38.9768 31.0017C39.4534 31.3317 39.7834 31.7167 39.9851 32.175C40.1684 32.6333 40.2784 33.0917 40.2784 33.605Z" fill="#004DF7"/>
</svg>
