<svg width="28" height="28" viewBox="0 0 28 28" fill="none" xmlns="http://www.w3.org/2000/svg">
<path d="M18.8884 2.33325H9.11171C4.86504 2.33325 2.33337 4.86492 2.33337 9.11159V18.8766C2.33337 23.1349 4.86504 25.6666 9.11171 25.6666H18.8767C23.1234 25.6666 25.655 23.1349 25.655 18.8883V9.11159C25.6667 4.86492 23.135 2.33325 18.8884 2.33325ZM17.92 16.6833C18.2584 17.0216 18.2584 17.5816 17.92 17.9199C17.745 18.0949 17.5234 18.1766 17.3017 18.1766C17.08 18.1766 16.8584 18.0949 16.6834 17.9199L14 15.2366L11.3167 17.9199C11.1417 18.0949 10.92 18.1766 10.6984 18.1766C10.4767 18.1766 10.255 18.0949 10.08 17.9199C9.74171 17.5816 9.74171 17.0216 10.08 16.6833L12.7634 13.9999L10.08 11.3166C9.74171 10.9783 9.74171 10.4183 10.08 10.0799C10.4184 9.74159 10.9784 9.74159 11.3167 10.0799L14 12.7633L16.6834 10.0799C17.0217 9.74159 17.5817 9.74159 17.92 10.0799C18.2584 10.4183 18.2584 10.9783 17.92 11.3166L15.2367 13.9999L17.92 16.6833Z" fill="#DE1135"/>
</svg>
