<svg width="44" height="44" viewBox="0 0 44 44" fill="none" xmlns="http://www.w3.org/2000/svg">
<path d="M22 3.66675C17.1966 3.66675 13.2916 7.57175 13.2916 12.3751C13.2916 17.0867 16.9766 20.9001 21.78 21.0651C21.9266 21.0467 22.0733 21.0467 22.1833 21.0651C22.22 21.0651 22.2383 21.0651 22.275 21.0651C22.2933 21.0651 22.2933 21.0651 22.3116 21.0651C27.005 20.9001 30.69 17.0867 30.7083 12.3751C30.7083 7.57175 26.8033 3.66675 22 3.66675Z" fill="#004DF7"/>
<path d="M31.3134 25.9418C26.1984 22.5318 17.8567 22.5318 12.7051 25.9418C10.3767 27.5001 9.09338 29.6084 9.09338 31.8634C9.09338 34.1184 10.3767 36.2084 12.6867 37.7484C15.2534 39.4718 18.6267 40.3334 22.0001 40.3334C25.3734 40.3334 28.7467 39.4718 31.3134 37.7484C33.6234 36.1901 34.9067 34.1001 34.9067 31.8268C34.8884 29.5718 33.6234 27.4818 31.3134 25.9418Z" fill="#004DF7"/>
</svg>
