<svg width="44" height="44" viewBox="0 0 44 44" fill="none" xmlns="http://www.w3.org/2000/svg">
<path d="M31.1667 6.41675H12.8334C7.33341 6.41675 3.66675 9.16675 3.66675 15.5834V28.4167C3.66675 34.8334 7.33341 37.5834 12.8334 37.5834H31.1667C36.6667 37.5834 40.3334 34.8334 40.3334 28.4167V15.5834C40.3334 9.16675 36.6667 6.41675 31.1667 6.41675ZM32.0284 17.5817L26.2901 22.1651C25.0801 23.1367 23.5401 23.6134 22.0001 23.6134C20.4601 23.6134 18.9017 23.1367 17.7101 22.1651L11.9717 17.5817C11.3851 17.1051 11.2934 16.2251 11.7517 15.6384C12.2284 15.0517 13.0901 14.9417 13.6767 15.4184L19.4151 20.0017C20.8084 21.1201 23.1734 21.1201 24.5667 20.0017L30.3051 15.4184C30.8917 14.9417 31.7717 15.0334 32.2301 15.6384C32.7067 16.2251 32.6151 17.1051 32.0284 17.5817Z" fill="#004DF7"/>
</svg>
