<svg width="44" height="44" viewBox="0 0 44 44" fill="none" xmlns="http://www.w3.org/2000/svg">
<path d="M29.6816 3.66675H14.3183C7.64496 3.66675 3.66663 7.64508 3.66663 14.3184V29.6634C3.66663 36.3551 7.64496 40.3334 14.3183 40.3334H29.6633C36.3366 40.3334 40.315 36.3551 40.315 29.6817V14.3184C40.3333 7.64508 36.355 3.66675 29.6816 3.66675ZM30.7633 17.7834L20.3683 28.1784C20.1116 28.4351 19.7633 28.5817 19.3966 28.5817C19.03 28.5817 18.6816 28.4351 18.425 28.1784L13.2366 22.9901C12.705 22.4584 12.705 21.5784 13.2366 21.0467C13.7683 20.5151 14.6483 20.5151 15.18 21.0467L19.3966 25.2634L28.82 15.8401C29.3516 15.3084 30.2316 15.3084 30.7633 15.8401C31.295 16.3717 31.295 17.2334 30.7633 17.7834Z" fill="#004DF7"/>
</svg>
